/* XPM */
static char *result[] = {
/* columns rows colors chars-per-pixel */
"32 32 184 2 ",
"   c #3D2C11",
".  c #2B341F",
"X  c #2D3621",
"o  c #2F3923",
"O  c #363520",
"+  c #303821",
"@  c #313C24",
"#  c #323B2A",
"$  c #393E2B",
"%  c #3C3D28",
"&  c #41321B",
"*  c #4D381C",
"=  c #344027",
"-  c #3E4125",
";  c #364229",
":  c #39442C",
">  c #3C4433",
",  c #40422C",
"<  c #4F422D",
"1  c #5E4522",
"2  c #5E4523",
"3  c #5D4624",
"4  c #5E4726",
"5  c #5D4828",
"6  c #5F4828",
"7  c #5E4829",
"8  c #5C4A2D",
"9  c #4C4130",
"0  c #424A34",
"q  c #4E4833",
"w  c #454C39",
"e  c #4E4B3D",
"r  c #5C4B30",
"t  c #5B4C32",
"y  c #5C4C30",
"u  c #5C4C33",
"i  c #5C4E37",
"p  c #5B4F38",
"a  c #59523F",
"s  c #604B2D",
"d  c #614C2D",
"f  c #70592B",
"g  c #614E32",
"h  c #765936",
"j  c #78652B",
"k  c #776B3F",
"l  c #7B6D3F",
"z  c #434C44",
"x  c #494F46",
"c  c #4C524A",
"v  c #4E544A",
"b  c #4A544F",
"n  c #545A47",
"m  c #57574A",
"M  c #56594F",
"N  c #4C5550",
"B  c #4C5651",
"V  c #4E5552",
"C  c #555C55",
"Z  c #5B5B52",
"A  c #615746",
"S  c #605943",
"D  c #615B48",
"F  c #6B5C48",
"G  c #625D56",
"H  c #5E6354",
"J  c #69624A",
"K  c #786D48",
"L  c #626555",
"P  c #6B6F5B",
"I  c #5A6363",
"U  c #6D6962",
"Y  c #6C6D66",
"T  c #747565",
"R  c #757766",
"E  c #777967",
"W  c #71706E",
"Q  c #747373",
"!  c #727576",
"~  c #777A74",
"^  c #8E6A3F",
"/  c #916A3B",
"(  c #906A3C",
")  c #D97A37",
"_  c #E57D35",
"`  c #846544",
"'  c #8C6D46",
"]  c #886D4C",
"[  c #C57A40",
"{  c #7BAD4F",
"}  c #7CAE55",
"|  c #7F806A",
" . c #AB813A",
".. c #D9833D",
"X. c #B7954E",
"o. c #98AB54",
"O. c #8DB255",
"+. c #98B257",
"@. c #AAB159",
"#. c #B2B052",
"$. c #B6B95E",
"%. c #84806A",
"&. c #848574",
"*. c #8C8C74",
"=. c #88877A",
"-. c #94947F",
";. c #88AF61",
":. c #89B466",
">. c #90B061",
",. c #B1AE6E",
"<. c #B3B276",
"1. c #D98546",
"2. c #DA9248",
"3. c #C89954",
"4. c #DF9058",
"5. c #E38A45",
"6. c #E08A4C",
"7. c #E0994E",
"8. c #E5965C",
"9. c #D4AA4F",
"0. c #CDAD51",
"q. c #CAB75E",
"w. c #D7B555",
"e. c #D5B65D",
"r. c #D8AC63",
"t. c #E5A97A",
"y. c #D3C37C",
"u. c #757C87",
"i. c #777F88",
"p. c #79838F",
"a. c #788292",
"s. c #928E80",
"d. c #979589",
"f. c #A5A292",
"g. c #A8A695",
"h. c #AEAB9B",
"j. c #B1AD9F",
"k. c #B4B19C",
"l. c #B4AFA1",
"z. c #B6B2A3",
"x. c #BAB4A4",
"c. c #BEBAA5",
"v. c #BCB7A9",
"b. c #BEB9AB",
"n. c #D4B49D",
"m. c #E3B189",
"M. c #C0BDA5",
"N. c #C2BDAB",
"B. c #C4BDB0",
"V. c #ACC080",
"C. c #B1C383",
"Z. c #B7C6A0",
"A. c #D3CA9B",
"S. c #C6CBA7",
"D. c #CECCA7",
"F. c #C5C2AF",
"G. c #D6C0AA",
"H. c #C7C0B3",
"J. c #C9C3B4",
"K. c #CDC8B8",
"L. c #D5CEBC",
"P. c #DECAB8",
"I. c #D9D1BD",
"U. c #DCD9BD",
"Y. c #E8C2A1",
"T. c #E5C7AD",
"R. c #E7CAB0",
"E. c #E5CEB8",
"W. c #E5D3BB",
"Q. c #EBD4BC",
"!. c #E8D9B8",
"~. c #D5D1C2",
"^. c #DAD3C4",
"/. c #DEDAC3",
"(. c #DBD5CA",
"). c #DED9D1",
"_. c #E1D2C1",
"`. c #E3DAC4",
"'. c #E3DBCC",
"]. c #EADECC",
"[. c #E5DDD2",
"{. c #E8DFD1",
"}. c #ECE1CB",
"|. c #EAE2D3",
/* pixels */
"1 1 1 1 1 1 1 1 1 1 1 1 1 1 1 1 1 1 *   * 1 1 1 1 1 1 1 1 1 1 1 ",
"1 1 1 1 1 1 1 1 1 1 1 1 1 1 1 1 1 1 * * 1 1 1 1 1 1 1 1 1 1 1 1 ",
"1 1 1 1 1 1 1 1 1 1 1 1 1 1 1 1 1 1 * * f 1 1 1 1 1 1 1 1 1 1 1 ",
"1 1 1 1 1 1 1 1 1 1 1 1 1 1 1 1 1 1 * * / f 1 1 1 1 1 1 1 1 1 1 ",
"f f f f f j j / j / / / / / / / / / 1   * / / / / / j j j j f f ",
"* * *   *                                             *   * * * ",
"1 1 1 1 1 1 1 *   * 1 1 1 1 1 1 1 7 8 y t r 3 1 1 1 1 1 1 1 1 1 ",
"1 1 1 1 1 1 1 * * 1 1 1 1 1 1 u S j.H.N.M.B.b.T m 4 1 1 1 1 1 1 ",
"1 1 1 1 1 1 1 * * / f 1 1 2 s.L.K.'.E.T.W.!.}.^.^.h.Y F 1 1 1 1 ",
"f f f f f j j 1   * / / ' -.(.(.'.R.8.5.r.e.A.'.'.`.h.~ l j f f ",
"* * *   *               q L.(.'.n.4._ 7.q.@.>.Z.(.|.|.&.G   * * ",
"1 1 1 1 1 1 1 1 1 1 i a 0 R E l.t.) 1.9.$.:.} :./.[.].| W 1 1 1 ",
"1 1 1 1 1 1 1 5 p =.z.h.h.l.h.&.J h [ 3.O.;.,.D.|.]./.E u.1 1 1 ",
"1 1 1 1 1 1 d b.F.~.].Q.W.I.}.K.v.g.`  .:.<.G.{.).'.d.> p.1 1 1 ",
"f f f f f k F.].'.W.m.5.2.e.y.!.[.U.x.%.F.'.`.b.z.*.: . a.j f f ",
"* * * * e c.`.[.^.m.6...9.w.#.C.~.[.|.g.L f.-.w @ @ o o p.  * * ",
"1 1 1 1 M c.'.).Y.1.) ..0.#.+.O.S.[.|.g.. . o @ o o o o i.1 1 1 ",
"1 1 1 1 C k.(.~.P.t.1.X.o.;.{ V.^.|.`.g.o o o @ @ @ o o ! 1 1 1 ",
"1 1 1 1 N H K./.)._.t.3.:.} V.~.|.].v.n . o = ; ; = o . U 1 1 1 ",
"f f f f b o P F.J.I.`.!.U.~.~.K.H.c.n . . = o ; = = = X K j f f ",
"* * *   b . : w w &.z.z.c.c.v.R > > o o X o ; : = o = X 9 * * * ",
"1 1 1 1 b o : ; @ = > > ; ; = = @ o = o o o o ; o o o . s 1 1 1 ",
"1 1 1 1 b . : = o @ = : = = = = = @ : . . = o o = = o z 1 1 1 1 ",
"1 1 1 1 B . ; = @ @ o @ = : ; = . = ; . . o o o . . z 6 1 1 1 1 ",
"1 1 1 1 c . = o = @ @ @ . = ; = @ = @ @ . X o o o z 2 1 1 1 1 1 ",
"f f f f v . o = o @ o @ = = = = @ @ . . o : > Q ( / j / j j f f ",
"* * * * x o o : = o = o = . = = = o o X V &       *   * * * * * ",
"1 1 1 1 Z @ X = = = = = . = . = o o o # g 1 1 1 1 1 1 1 1 1 1 1 ",
"1 1 1 1 1 I o o # o o # = = = = o o = A 1 1 1 1 1 1 1 1 1 1 1 1 ",
"1 1 1 1 1 1 I o X o X X = . . . + - 1 1 1 1 1 1 1 1 1 1 1 1 1 1 ",
"f f f / f f / ^ ] D # $ , % O < f / / / / / / / / / / f / f f f ",
"*   *                             *                     *   * * "
};
