/* XPM */
static char *result[] = {
/* columns rows colors chars-per-pixel */
"32 32 184 2 ",
"   c #3D2C11",
".  c #2B341F",
"X  c #3F3017",
"o  c #2D3621",
"O  c #2F3621",
"+  c #2F3923",
"@  c #313C24",
"#  c #383A26",
"$  c #3C3924",
"%  c #323B29",
"&  c #323B2A",
"*  c #353B29",
"=  c #383C28",
"-  c #403119",
";  c #4D381C",
":  c #443A23",
">  c #453B27",
",  c #344027",
"<  c #3E4125",
"1  c #364229",
"2  c #39442C",
"3  c #3C4433",
"4  c #47412E",
"5  c #4F432E",
"6  c #5E4522",
"7  c #5E4523",
"8  c #5E4624",
"9  c #5F4828",
"0  c #5C4A2D",
"q  c #424A34",
"w  c #454C39",
"e  c #4E483D",
"r  c #5B4C31",
"t  c #55513D",
"y  c #5E543C",
"u  c #604A2B",
"i  c #614C2D",
"p  c #70592B",
"a  c #614D30",
"s  c #655237",
"d  c #625139",
"f  c #645439",
"g  c #64543D",
"h  c #765936",
"j  c #78652B",
"k  c #786835",
"l  c #434C44",
"z  c #504F40",
"x  c #4E5045",
"c  c #4C5249",
"v  c #4E5349",
"b  c #4C524A",
"n  c #4A544F",
"m  c #5C5644",
"M  c #545A47",
"N  c #4C5550",
"B  c #4C5651",
"V  c #4F5653",
"C  c #535A53",
"Z  c #595D51",
"A  c #655641",
"S  c #6B5C48",
"D  c #5F6054",
"F  c #5E6354",
"G  c #69624A",
"H  c #71634A",
"J  c #7E6748",
"K  c #626555",
"L  c #6A6459",
"P  c #6B6F5B",
"I  c #5A6363",
"U  c #6D6962",
"Y  c #6C6D66",
"T  c #6A6C6F",
"R  c #737464",
"E  c #757766",
"W  c #777967",
"Q  c #6F7275",
"!  c #767A74",
"~  c #787A71",
"^  c #8F693C",
"/  c #8C6A3F",
"(  c #916A3B",
")  c #D97A37",
"_  c #E57D35",
"`  c #806642",
"'  c #846544",
"]  c #8C6D47",
"[  c #C57A40",
"{  c #7BAD4F",
"}  c #7CAE55",
"|  c #7F806A",
" . c #AB813A",
".. c #D9833D",
"X. c #B7954E",
"o. c #98AB54",
"O. c #8DB255",
"+. c #98B257",
"@. c #AAB159",
"#. c #B2B052",
"$. c #B6B95E",
"%. c #84806A",
"&. c #848574",
"*. c #8C8C74",
"=. c #868679",
"-. c #94947F",
";. c #88AF61",
":. c #89B466",
">. c #90B061",
",. c #B1AE6E",
"<. c #B3B276",
"1. c #D98546",
"2. c #DA9248",
"3. c #C89954",
"4. c #DF9058",
"5. c #E38A45",
"6. c #E08A4C",
"7. c #E0994E",
"8. c #E5965C",
"9. c #D4AA4F",
"0. c #CDAD51",
"q. c #CAB75E",
"w. c #D7B555",
"e. c #D5B65D",
"r. c #D8AC63",
"t. c #E5A97A",
"y. c #D3C37C",
"u. c #737A86",
"i. c #788189",
"p. c #79838F",
"a. c #788292",
"s. c #928E80",
"d. c #979589",
"f. c #A5A292",
"g. c #A8A695",
"h. c #AEAB9B",
"j. c #B1AD9F",
"k. c #B4B19C",
"l. c #B4AFA1",
"z. c #B6B2A3",
"x. c #BAB4A4",
"c. c #BEBAA5",
"v. c #BCB7A9",
"b. c #BEB9AB",
"n. c #D4B49D",
"m. c #E3B189",
"M. c #C0BDA5",
"N. c #C2BDAB",
"B. c #C4BDB0",
"V. c #ACC080",
"C. c #B1C383",
"Z. c #B7C6A0",
"A. c #D3CA9B",
"S. c #C6CBA7",
"D. c #CECCA7",
"F. c #C5C2AF",
"G. c #D6C0AA",
"H. c #C7C0B3",
"J. c #C9C3B4",
"K. c #CDC8B8",
"L. c #D5CEBC",
"P. c #DECAB8",
"I. c #D9D1BD",
"U. c #DCD9BD",
"Y. c #E8C2A1",
"T. c #E5C7AD",
"R. c #E7CAB0",
"E. c #E5CEB8",
"W. c #E5D3BB",
"Q. c #EBD4BC",
"!. c #E8D9B8",
"~. c #D5D1C2",
"^. c #DAD3C4",
"/. c #DEDAC3",
"(. c #DBD5CA",
"). c #DED9D1",
"_. c #E1D2C1",
"`. c #E3DAC4",
"'. c #E3DBCC",
"]. c #EADECC",
"[. c #E5DDD2",
"{. c #E8DFD1",
"}. c #ECE1CB",
"|. c #EAE2D3",
/* pixels */
"6 6 6 6 6 6 6 6 6 6 6 6 6 6 6 6 6 6 ;   ; 6 6 6 6 6 6 6 6 6 6 6 ",
"6 6 6 6 6 6 6 6 6 6 6 6 6 6 6 6 6 6 ; ; 6 6 6 6 6 6 6 6 6 6 6 6 ",
"6 6 6 6 6 6 6 6 6 6 6 6 6 6 6 6 6 6 ; ; p 6 6 6 6 6 6 6 6 6 6 6 ",
"6 6 6 6 6 6 6 6 6 6 6 6 6 6 6 6 6 6 ; ; ( p 6 6 6 6 6 6 6 6 6 6 ",
"p p p p p j j ( j ( ( ( ( ( ( ( ( / 0 : 5 ` ^ ( ( ( j j j j p p ",
"; ; ;   ;                     > t j.H.N.M.B.b.R x X   ;   ; ; ; ",
"6 6 6 6 6 6 6 ;   ; 6 6 6 7 s.L.K.'.E.T.W.!.}.^.^.h.Y S 6 6 6 6 ",
"6 6 6 6 6 6 6 ; ; 6 6 6 a -.(.(.'.R.8.5.r.e.A.'.'.`.h.! s 6 6 6 ",
"6 6 6 6 6 6 6 ; ; ( p 6 y L.(.'.n.4._ 7.q.@.>.Z.(.|.|.&.L 6 6 6 ",
"p p p p p j j 6   ; J H q E W l.t.) 1.9.$.:.} :./.[.].| ~ j p p ",
"; ; ;   ;     - 4 =.z.h.h.l.h.&.G h [ 3.O.;.,.D.|.]./.W u.  ; ; ",
"6 6 6 6 6 6 i b.F.~.].Q.W.I.}.K.v.g.'  .:.<.G.{.).'.d.3 p.6 6 6 ",
"6 6 6 6 6 f F.].'.W.m.5.2.e.y.!.[.U.x.%.F.'.`.b.z.*.2 . a.6 6 6 ",
"6 6 6 6 m c.`.[.^.m.6...9.w.#.C.~.[.|.g.K f.-.w @ @ + + p.6 6 6 ",
"p p p p Z c.'.).Y.1.) ..0.#.+.O.S.[.|.g.. . + @ + + + + i.j p p ",
"; ; ; ; C k.(.~.P.t.1.X.o.;.{ V.^.|.`.g.+ + + @ @ @ + + Q   ; ; ",
"6 6 6 6 N F K./.)._.t.3.:.} V.~.|.].v.M . + , 1 1 , + . U 6 6 6 ",
"6 6 6 6 n + P F.J.I.`.!.U.~.~.K.H.c.M . . , + 1 , , , o A 6 6 6 ",
"6 6 6 6 n . 2 w w &.z.z.c.c.v.E 3 3 + + o + 1 2 , + , o g 6 6 6 ",
"p p p p n + 2 1 @ , 3 3 1 1 , , @ + , + + + + 1 + + + . k j p p ",
"; ; ;   n . 2 , + @ , 2 , , , , , @ 2 . . , + + , , + l   ; ; ; ",
"6 6 6 6 B . 1 , @ @ + @ , 2 1 , . , 1 . . + + + . . l 9 6 6 6 6 ",
"6 6 6 6 b . , + , @ @ @ . , 1 , @ , @ @ . o + + + l 7 6 6 6 6 6 ",
"6 6 6 6 c . + , + @ + @ , , , , @ @ . . + 2 3 T 8 6 6 6 6 6 6 6 ",
"6 6 6 6 v + + 2 , + , + , . , , , + + o V u 6 6 6 6 6 6 6 6 6 6 ",
"p p p p D @ o , , , , , . , . , + + + & ] ( ( ( ( ( j ( j j p p ",
"; ; ; ;   I + + & + + & , , , , + + , e           ;   ; ; ; ; ; ",
"6 6 6 6 6 6 I + o + o o , . . . O < 6 6 6 6 6 6 6 6 6 6 6 6 6 6 ",
"6 6 6 6 6 6 6 9 d z % * = # $ r 6 6 6 6 6 6 6 6 6 6 6 6 6 6 6 6 ",
"6 6 6 6 6 6 6 6 6 6 6 6 6 ; ; ( p 6 6 6 6 6 6 6 6 6 6 6 6 6 6 6 ",
"p p p ( p p ( ( ( ( ( ( ( 6   ; p ( ( ( ( ( ( ( ( ( ( p ( p p p ",
";   ;                             ;                     ;   ; ; "
};
