/* XPM */
static char *result[] = {
/* columns rows colors chars-per-pixel */
"32 32 185 2 ",
"   c #3D2C11",
".  c #3E2D13",
"X  c #2B341F",
"o  c #2D3621",
"O  c #2E3620",
"+  c #2F3923",
"@  c #313C24",
"#  c #3A3D24",
"$  c #323B2A",
"%  c #393E2B",
"&  c #4D381C",
"*  c #4E3C22",
"=  c #344027",
"-  c #364229",
";  c #39442C",
":  c #3C4433",
">  c #40422C",
",  c #4F4028",
"<  c #49462E",
"1  c #5E4522",
"2  c #5E4523",
"3  c #5D4624",
"4  c #5E4726",
"5  c #50422B",
"6  c #5F4828",
"7  c #5E4829",
"8  c #424A34",
"9  c #4E4833",
"0  c #454C39",
"q  c #564C30",
"w  c #514834",
"e  c #5C4B30",
"r  c #5B4C32",
"t  c #5C4C33",
"y  c #5C4E37",
"u  c #584A38",
"i  c #59523F",
"p  c #604A2B",
"a  c #604B2D",
"s  c #614C2D",
"d  c #70592B",
"f  c #614E32",
"g  c #765936",
"h  c #78652B",
"j  c #78652C",
"k  c #776B3F",
"l  c #7B6D3F",
"z  c #434C44",
"x  c #484F47",
"c  c #4E5349",
"v  c #4E544B",
"b  c #4A544F",
"n  c #555041",
"m  c #545A47",
"M  c #57574A",
"N  c #56594F",
"B  c #4C5550",
"V  c #4C5651",
"C  c #4F5653",
"Z  c #555C55",
"A  c #5A5851",
"S  c #5B5B52",
"D  c #615746",
"F  c #605943",
"G  c #615B48",
"H  c #6B5C48",
"J  c #5E6354",
"K  c #69624A",
"L  c #756940",
"P  c #786D48",
"I  c #626555",
"U  c #6B6F5B",
"Y  c #5A6363",
"T  c #6D6962",
"R  c #6C6D66",
"E  c #64686B",
"W  c #747565",
"Q  c #757766",
"!  c #777967",
"~  c #71706E",
"^  c #727576",
"/  c #777A74",
"(  c #8E6A3F",
")  c #916A3B",
"_  c #D97A37",
"`  c #E57D35",
"'  c #806643",
"]  c #846544",
"[  c #8C6D46",
"{  c #C57A40",
"}  c #7BAD4F",
"|  c #7CAE55",
" . c #7F806A",
".. c #AB813A",
"X. c #D9833D",
"o. c #B7954E",
"O. c #98AB54",
"+. c #8DB255",
"@. c #98B257",
"#. c #AAB159",
"$. c #B2B052",
"%. c #B6B95E",
"&. c #84806A",
"*. c #848574",
"=. c #8C8C74",
"-. c #88877A",
";. c #94947F",
":. c #88AF61",
">. c #89B466",
",. c #90B061",
"<. c #B1AE6E",
"1. c #B3B276",
"2. c #D98546",
"3. c #DA9248",
"4. c #C89954",
"5. c #DF9058",
"6. c #E38A45",
"7. c #E08A4C",
"8. c #E0994E",
"9. c #E5965C",
"0. c #D4AA4F",
"q. c #CDAD51",
"w. c #CAB75E",
"e. c #D7B555",
"r. c #D5B65D",
"t. c #D8AC63",
"y. c #E5A97A",
"u. c #D3C37C",
"i. c #757C87",
"p. c #777F88",
"a. c #79838F",
"s. c #788292",
"d. c #928E80",
"f. c #979589",
"g. c #A5A292",
"h. c #A8A695",
"j. c #AEAB9B",
"k. c #B1AD9F",
"l. c #B4B19C",
"z. c #B4AFA1",
"x. c #B6B2A3",
"c. c #BAB4A4",
"v. c #BEBAA5",
"b. c #BCB7A9",
"n. c #BEB9AB",
"m. c #D4B49D",
"M. c #E3B189",
"N. c #C0BDA5",
"B. c #C2BDAB",
"V. c #C4BDB0",
"C. c #ACC080",
"Z. c #B1C383",
"A. c #B7C6A0",
"S. c #D3CA9B",
"D. c #C6CBA7",
"F. c #CECCA7",
"G. c #C5C2AF",
"H. c #D6C0AA",
"J. c #C7C0B3",
"K. c #C9C3B4",
"L. c #CDC8B8",
"P. c #D5CEBC",
"I. c #DECAB8",
"U. c #D9D1BD",
"Y. c #DCD9BD",
"T. c #E8C2A1",
"R. c #E5C7AD",
"E. c #E7CAB0",
"W. c #E5CEB8",
"Q. c #E5D3BB",
"!. c #EBD4BC",
"~. c #E8D9B8",
"^. c #D5D1C2",
"/. c #DAD3C4",
"(. c #DEDAC3",
"). c #DBD5CA",
"_. c #DED9D1",
"`. c #E1D2C1",
"'. c #E3DAC4",
"]. c #E3DBCC",
"[. c #EADECC",
"{. c #E5DDD2",
"}. c #E8DFD1",
"|. c #ECE1CB",
" X c #EAE2D3",
/* pixels */
"1 1 1 1 1 1 1 1 1 1 1 1 1 1 1 1 1 1 &   & 1 1 1 1 1 1 1 1 1 1 1 ",
"1 1 1 1 1 1 1 1 1 1 1 1 1 1 1 1 1 7 , 5 r e 3 1 1 1 1 1 1 1 1 1 ",
"1 1 1 1 1 1 1 1 1 1 1 1 1 1 1 t F k.J.B.N.V.n.W M 4 1 1 1 1 1 1 ",
"1 1 1 1 1 1 1 1 1 1 1 1 1 2 d.P.L.].W.R.Q.~.|././.j.R H 1 1 1 1 ",
"d d d d d h h ) h ) ) ) [ ;.).).].E.9.6.t.r.S.].].'.j./ l h d d ",
"& & &   &               9 P.).].m.5.` 8.w.#.,.A.). X X*.A & & & ",
"1 1 1 1 1 1 1 &   & y i 8 Q ! z.y._ 2.0.%.>.| >.(.{.[. .~ 1 1 1 ",
"1 1 1 1 1 1 1 * w -.x.j.j.z.j.*.K g { 4.+.:.<.F. X[.(.! i.1 1 1 ",
"1 1 1 1 1 1 s n.G.^.[.!.Q.U.|.L.b.h.] ..>.1.H.}._.].f.: a.1 1 1 ",
"d d d d d k G.[.].Q.M.6.3.r.u.~.{.Y.c.&.G.].'.n.x.=.; X s.h d d ",
"& & &   n v.'.{./.M.7.X.0.e.$.Z.^.{. Xh.I g.;.0 @ @ + + a.  & & ",
"1 1 1 1 N v.]._.T.2._ X.q.$.@.+.D.{. Xh.X X + @ + + + + p.1 1 1 ",
"1 1 1 1 Z l.).^.I.y.2.o.O.:.} C./. X'.h.+ + + @ @ @ + + ^ 1 1 1 ",
"1 1 1 1 B J L.(._.`.y.4.>.| C.^. X[.b.m X + = - - = + X T 1 1 1 ",
"d d d d b + U G.K.U.'.~.Y.^.^.L.J.v.m X X = + - = = = o P h d d ",
"& & & & b X ; 0 0 *.x.x.v.v.b.Q : : + + o + - ; = + = o u   & & ",
"1 1 1 1 b + ; - @ = : : - - = = @ + = + + + + - + + + X a 1 1 1 ",
"1 1 1 1 b X ; = + @ = ; = = = = = @ ; X X = + + = = + z 1 1 1 1 ",
"1 1 1 1 V X - = @ @ + @ = ; - = X = - X X + + + X X z 6 1 1 1 1 ",
"d d d d v X = + = @ @ @ X = - = @ = @ @ X o + + + z j h h h d d ",
"& & &   x X + = + @ + @ = = = = @ @ X X + ; : E .     &   & & & ",
"1 1 1 1 c + + ; = + = + = X = = = + + o C p 1 1 1 1 1 1 1 1 1 1 ",
"1 1 1 1 S @ o = = = = = X = X = + + + $ f 1 1 1 1 1 1 1 1 1 1 1 ",
"1 1 1 1 1 Y + + $ + + $ = = = = + + = D 1 1 1 1 1 1 1 1 1 1 1 1 ",
"1 1 1 1 1 1 Y + o + o o = X X X O # ) d 1 1 1 1 1 1 1 1 1 1 1 1 ",
"d d d d d h h ( L G $ % > < q ' 1   & ) ) ) ) ) ) ) h ) h h d d ",
"& & & &   &                                       &   & & & & & ",
"1 1 1 1 1 1 1 1 1 1 1 1 1 &   & 1 1 1 1 1 1 1 1 1 1 1 1 1 1 1 1 ",
"1 1 1 1 1 1 1 1 1 1 1 1 1 & & 1 1 1 1 1 1 1 1 1 1 1 1 1 1 1 1 1 ",
"1 1 1 1 1 1 1 1 1 1 1 1 1 & & ) d 1 1 1 1 1 1 1 1 1 1 1 1 1 1 1 ",
"d d d ) d d ) ) ) ) ) ) ) 1   & d ) ) ) ) ) ) ) ) ) ) d ) d d d ",
"&   &                             &                     &   & & "
};
