/* XPM */
static char *_a63910ef0a84aa8d989bb456cad4d2bjp5Xv3jkgqjBdLJ6[] = {
/* columns rows colors chars-per-pixel */
"32 32 7 1 ",
"  c #5E4522",
". c #4D381C",
"X c #3D2C11",
"o c #70592B",
"O c #916A3B",
"+ c #78652B",
"@ c white",
/* pixels */
"                  .X.           ",
"                  ..            ",
"                  ..o           ",
"                  ..Oo          ",
"ooooo++O+OOOOOOOOO X.OOOOO++++oo",
"...X.XXXXXXXXXXXXXXXXXXXXXX.X...",
"       .X.                      ",
"       ..                       ",
"       ..Oo                     ",
"ooooo++ X.OOOOOOOOOOOOOOOO++++oo",
"...X.XXXXXXXXXXXXXXXXXXXXXXX.X..",
"                   .X.          ",
"                   ..           ",
"                   ..Oo         ",
"ooooo++++OOOOOOOOOOOX.OOOO+O++oo",
"....XXXXXXXXXXXXXXXXXXXXXXXX.X..",
"     .X.                        ",
"     ..                         ",
"     ..Oo                       ",
"ooooo X.+OOOOOOOOOOOOOOOOO++++oo",
"...XXXXXXXXXXXXXXXXXXXXXXXX.X...",
"                .X.             ",
"                ..              ",
"                ..o             ",
"                ..Oo            ",
"ooooo++O+OOOOOOO X.OOOOOOO+O++oo",
"....X.XXXXXXXXXXXXXXXXXXX.X.....",
"             .X.                ",
"             ..                 ",
"             ..Oo               ",
"oooOooOOOOOOO X.oOOOOOOOOOOoOooo",
".X.XXXXXXXXXXXXXX.XXXXXXXXXX.X.."
};
