/* XPM */
static char *c5c847a18f34454d99c4fa6c8d8269e0TP5oKikQl6BqBegs[] = {
/* columns rows colors chars-per-pixel */
"32 32 17 1 ",
"  c #5E4522",
". c #3D2C11",
"X c #36160A",
"o c #4D381C",
"O c #BA9961",
"+ c #70592B",
"@ c #EBCB7A",
"# c #E5BD77",
"$ c #9E804C",
"% c #C29A5E",
"& c #C5A260",
"* c #A2884E",
"= c #ECD093",
"- c #825734",
"; c #916A3B",
": c #F0DAAD",
"> c white",
/* pixels */
"                                ",
" ......XXXXXXXXXXXXXXXXXX...... ",
" .ooooo. OOOOOOOOOOOOOO. .ooooo ",
"+.o   o. O@#@#@#@#@#@#@. .o   o ",
" o  +  . O#@#@#@#@#@#@#. o  +   ",
"+. + + . O@#@#@#@#@#@#@. . + +  ",
"+o  +  . O#@#@#@#@#@@@#. o  +   ",
"+++++++. O@#@#@#@#@#@#@. ++++++ ",
"+....... O#@#@#@#@@@#@@. ...... ",
"+OOOOOO. O@#@#@#@#@#@@@o OOOOOO ",
"+O$@%@#o O#@#@#@@@#@#@@. O#@#&# ",
"+O@$@#@. O@#@#@#@#@@@@@o O@$@%@ ",
"+O#*%@#o O#@#@@@#@#@@@@o O#*%*# ",
"+O@#@#@o O@#@@@@@@@@@@@o O@#@%@ ",
"++ ++++o O#@@@@#@@@@@@@o ++++ + ",
"+......o O@@#@@@@@@@@@=o ...... ",
"+OOOOOOo O@@@@@@@@@@@@@o OOOOOO ",
"+O#@%@#o O#@@@@@@@@@@@@o O$@#&# ",
"+O@$*#@o O@@@@@@@@@@=@@o O@$&%@ ",
" O#&$&#o O@@@@@@@=@=@@@o O#*#&# ",
"+O@#&#@o O@@@@@@=@=@=@@o O@#*%@ ",
" -;;;;-o O@@@@@=@=@=@=@o -;;;;- ",
"       o O@@@@=@=@=@:@=o        ",
" ooooooo O@@@@@=@=@==:@o oooooo ",
" ......o O@@@@=@=@:=:=@o ...... ",
" .oooooo O@@@=@=@:=:=:@o .ooooo ",
" .o   oo O@@=@=@==:=:@@o .o   o ",
" . + + o O@@@=@:@:=:==@o . + +  ",
" o  +  o O@@=@=@=@=@=@=o o  +   ",
" o +++ o O@=@=@@@@@@@=@o o +++  ",
"++++++++++++++++++++++++++++++++",
"                                "
};
