/* XPM */
static char *result[] = {
/* columns rows colors chars-per-pixel */
"32 32 44 1 ",
"  c #3D2C11",
". c #2E1E22",
"X c #760000",
"o c #5C2E00",
"O c #4D381C",
"+ c #4D3B39",
"@ c #534721",
"# c #5E4522",
"$ c #70592B",
"% c #78652B",
"& c #444444",
"* c #565657",
"= c #77584A",
"- c #705654",
"; c #6D6D6E",
": c #767678",
"> c #AD0000",
", c #FF2627",
"< c #964F00",
"1 c #916A3B",
"2 c #8B5E4A",
"3 c #9D704C",
"4 c #A77E5D",
"5 c #8F7772",
"6 c #C79D00",
"7 c #E3B700",
"8 c #FFD600",
"9 c #D7906E",
"0 c #1A5586",
"q c #286E9F",
"w c #288DCB",
"e c #858587",
"r c #9F8781",
"t c #928A8C",
"y c #979799",
"u c #B89D92",
"i c #B7A099",
"p c #B7B7BB",
"a c #EEBE93",
"s c #FFE1AF",
"d c gray85",
"f c #D9D9DD",
"g c gray95",
"h c white",
/* pixels */
"##################O O###########",
"##########++++###++++###########",
"###########+5-+++-5-++++++######",
"#######++++++55-55-+i55-+#######",
"$$$$$%%1+-5i--55i-5i5--+++%%%%$$",
"OOO O  +++-5i55i555555555-+O OOO",
"######+-555555555555i55-++######",
"#####+-5-5i555i5555-5i555-+#####",
"####++++5i55X5ii-5i5-5--55-+####",
"$$$$$%+5-i5->-5i-5i5>-5X>+5-+%$$",
"OOO O+--+55X,>55>555,>->,X++O OO",
"#####+-+@-5>,,-5,-5-,>XX>X-+####",
"######+#@a-asss-s----5--,>--+###",
"########@aas@@@ss5---55-,,>-+###",
"$$$$$%%%@assf.dss55as555,,,++%$$",
"OOOO    @asst.gss5a3s555>,,,+ OO",
"#####O O@9ssoohss5s3a-55>,,,X###",
"#####OO#@3as<<sss5a9@-5-->,,,###",
"#####OO1$@9asssssa99----->,,,X##",
"$$$$$# O%1@399aaa993-+-+-+,XX>$$",
"OOO        @@@@@@@::+ + + X>>>OO",
"###########:pffhhhffp:#####>>###",
"##########@67hhhfpfpfp:#########",
"###########@8qhf&:pyffp:########",
"###########&8qw@uu**hfpp:#######",
"$$$$$%%1%11&e2@444r;hfpp::%1%%$$",
"OOOO O     &*0@444=@hfppp: OOOOO",
"###########@6*@22=@;hfp:p:######",
"##########@2268@@@68hfp::#######",
"##########@222@@rr4hfpp:########",
"$$$1$$11111@@@ O@4:fp::1111$1$$$",
"O O              @@::       O OO"
};
