/* XPM */
static char *result[] = {
/* columns rows colors chars-per-pixel */
"32 32 46 1 ",
"  c #3D2C11",
". c #2E1E22",
"X c #323234",
"o c #760000",
"O c #5C2E00",
"+ c #4D381C",
"@ c #4D3B39",
"# c #534721",
"$ c #5E4522",
"% c #70592B",
"& c #78652B",
"* c #444444",
"= c #565657",
"- c #77584A",
"; c #705654",
": c #6D6D6E",
"> c #767678",
", c #AD0000",
"< c #FF2627",
"1 c #964F00",
"2 c #916A3B",
"3 c #8B5E4A",
"4 c #9D704C",
"5 c #A77E5D",
"6 c #8F7772",
"7 c #C79D00",
"8 c #E3B700",
"9 c #FFD600",
"0 c #FFFC00",
"q c #D7906E",
"w c #1A5586",
"e c #286E9F",
"r c #288DCB",
"t c #858587",
"y c #9F8781",
"u c #928A8C",
"i c #979799",
"p c #B89D92",
"a c #B7A099",
"s c #B7B7BB",
"d c #EEBE93",
"f c #FFE1AF",
"g c gray85",
"h c #D9D9DD",
"j c gray95",
"k c white",
/* pixels */
"$$$$$$$$$$@@@@$$$@@@@$$$$$$$$$$$",
"$$$$$$$$$$$@6;@@@a6;@@@@@@$$$$$$",
"$$$$$$$@@@@@;66;a6;@66;@@$$$$$$$",
"$$$$$$$$@;6;@;a66;66a66;@@@$$$$$",
"%%%%%&&@@@;6666a666a6;@a66;@&&%%",
"+++ + @;666aa666666666a6;@@+ +++",
"$$$$$@;@;6666666a66a666;66;@$$$$",
"$$$$@@@;6a666a6aa6o;a666;66;@$$$",
"$$$$$$@6a666a6;a6;,o66oa6;@6;@$$",
"%%%%%@;66;6;66o66,<,;6o6a;;@@&%%",
"+++ +@66;66o6;,6;<<<,6o;6;6@+ ++",
"$$$$@6;;66;d;ff;ffffd;d;6;;6@$$$",
"$$$$@@#;6;d###fffff###dq;q@;@$$$",
"$$$$@$#;6;dg.hfffffh.gdq;q#@@$$$",
"%%%%%&@#;4dj.ufffffu.jd4;#@2@&%%",
"++++  @;;4dkOOfffffOOkd4;;@ + ++",
"$$$$$+@;@#qd11fffff11dq#@;@$$$$$",
"$$$$$++@>>#qdfffffffdq#>>@$$$$$$",
"$$$$$++*>ss#4qdddddq4#ss>*$$$$$$",
"%%%%%$*isshs#########shssi*&&&%%",
"+++   *>hithkkhs>shkkhtih>*+ +++",
"$$$$$$X*==Xwhkk878kkhwX==*X$$$$$",
"$$$$$$#y:*Xwekrr0rrkewX*:y#$$$$$",
"$$$$$#35pXX-werr9rrew-XXp53#$$$$",
"$$$$$#553X*w-33ttt33-w*X355#$$$$",
"%%%%%#33#X*=err:0:rre=*X#33#&&%%",
"++++ +##k#7==::0=0::==7#k##+++++",
"$$$$$$>kk>#7990***0997#>kk>$$$$$",
"$$$$$$>kk>>#ypy###ypy#>>kk>$$$$$",
"$$$$$$$>k>$#35-#%#-53#$>k>$$$$$$",
"%%%2%%22>22#553#%#355#22>22%2%%%",
"+ +         ###  +###       + ++"
};
