/* XPM */
static char *result[] = {
/* columns rows colors chars-per-pixel */
"32 32 23 1 ",
"  c #3D2C11",
". c #323234",
"X c #760000",
"o c #4D381C",
"O c #4D3B39",
"+ c #534721",
"@ c #5E4522",
"# c #70592B",
"$ c #78652B",
"% c #444444",
"& c #705654",
"* c #767678",
"= c #AD0000",
"- c #FF2627",
"; c #916A3B",
": c #8B5E4A",
"> c #8F7772",
", c #9F8781",
"< c #979799",
"1 c #B7A099",
"2 c #B7B7BB",
"3 c #D9D9DD",
"4 c white",
/* pixels */
"@@@@@@@@@@@@OOOO@@oOOOO@@@@@@@@@",
"@@@@@@@OOOOOO&>1OOO&>O@@@@@@@@@@",
"@@@@@@@@OO&>>O&>1&1>&OOOOO@@@@@@",
"@@@@@@OOO&>>1>>&>>>&O&>&O@@@@@@@",
"#####O&>>>O&>1>>>>>11>&OOO$$$$##",
"ooo o OO&>>>>>>>&&>>>1>>>&Oo ooo",
"@@@@@O&>>&>>>1>>>>&>>>>>&O&O@@@@",
"@@@@O&>>&1>>11>>1>>1>>>1>&OOO@@@",
"@@@O&>O&1>&>1>>>11&>1>>>1>O@@@@@",
"####OO&&>>&>>>&>1>&>1&>&>>&O$$##",
"ooo oO>&>&&>>&&&>>&>>&>>&>>Oo oo",
"@@@@O>&&&X&>&X==>>X&>&>>X&&>O@@@",
"@@@@O&O&XX&&X=X->&XX&X&>X&OOO@@@",
"@@@@OOO&&XX&=-X-&=X=XXX&&&O@O@@@",
"####O$O&&&&X===X=X===X&&&&O;$$##",
"oooo  O&&O&&&=-=&=-=&&&O&&O o oo",
"@@@@@oO&OO&&&=--&--=&&&OO&O@@@@@",
"@@@@@ooO%O&&&=--&--=&&&O%O@@@@@@",
"@@@@@oo%**O&O---O---O&O**%@@@@@@",
"#####@%<2*2O2---2---2O2*2<%$$$##",
"ooo   %**2322---3---2232**%o ooo",
"@@@@@@.%*2323---4--33232*%.@@@@@",
"@@@@@@+,*23234--4--43232*,+@@@@@",
"@@@@@+:*23434444444443432*:+@@@@",
"@@@@@+:*23444444444444432*:+@@@@",
"#####+:*24434444444443442*:+$$##",
"oooo o*2343244444444423432*ooooo",
"@@@@@@*2343234444444323432*@@@@@",
"@@@@@@*2332234444444322332*@@@@@",
"@@@@@@@**22*334444433*22**@@@@@@",
"###;##;;;****2222222****;;;#;###",
"o o         +++  o+++       o oo"
};
