/* XPM */
static char *result[] = {
/* columns rows colors chars-per-pixel */
"32 32 44 1 ",
"  c #3D2C11",
". c #2E1E22",
"X c #760000",
"o c #5C2E00",
"O c #4D381C",
"+ c #4D3B39",
"@ c #534721",
"# c #5E4522",
"$ c #70592B",
"% c #78652B",
"& c #444444",
"* c #565657",
"= c #77584A",
"- c #705654",
"; c #6D6D6E",
": c #767678",
"> c #AD0000",
", c #FF2627",
"< c #964F00",
"1 c #916A3B",
"2 c #8B5E4A",
"3 c #9D704C",
"4 c #A77E5D",
"5 c #8F7772",
"6 c #C79D00",
"7 c #E3B700",
"8 c #FFD600",
"9 c #D7906E",
"0 c #1A5586",
"q c #286E9F",
"w c #288DCB",
"e c #858587",
"r c #9F8781",
"t c #928A8C",
"y c #979799",
"u c #B89D92",
"i c #B7A099",
"p c #B7B7BB",
"a c #EEBE93",
"s c #FFE1AF",
"d c gray85",
"f c #D9D9DD",
"g c gray95",
"h c white",
/* pixels */
"##################O O###########",
"############++++##O++++#########",
"#######++++++-5-+++-5+##########",
"########+-55i+-55-55++++++######",
"$$$$$%%+++--5i5-i55--i5-+1%%%%$$",
"OOO O +-555555555i55i5-+++ O OOO",
"#######++-55i555555555555-+#####",
"######+-555i5-5555i555i5-5-+####",
"#####+-55--5-5i5-ii5X55i5++++###",
"$$$$+-5+>X5->5i5-i5->-5i-5+%%%$$",
"OOO O++X,>->,555>55>,X55+--+O OO",
"#####+-X>XX>,-5-,5-,,>5-@+-+####",
"####+-->,--5----s-sssa-a@#+#####",
"####+->,,-55---5ss@@@saa@#######",
"$$$$++,,,555sa55ssd.fssa@1%1%%$$",
"OOOO+,,,>555s3a5ssg.tssa@   O OO",
"####X,,,>55-a3s5sshooss9@#######",
"####,,,>--5-@9a5sss<<sa3@#######",
"###X,,,>-----99asssssa9@########",
"$$$>XX,+-+-+-399aaa993@111%%%%$$",
"OOO>>>X + + +::@@@@@@@     O OOO",
"####>>#####:pffhhhffp:##########",
"##########:pfpfpfhhh76@#########",
"########::pffyp:&fhq8@##########",
"#######::ppfh**uu@wq8&##########",
"$$$$$%:::ppfh;r444@2e&1111%1%%$$",
"OOOO O::pppfh@=444@0*&   O OOOOO",
"######::p:pfh;@=22@*6@##########",
"#######:::pfh86@@@8622@#########",
"########::ppfh4rr@@222@#########",
"$$$1$$111:::pf:4@11@@@11111$1$$$",
"O O         ::@@ O          O OO"
};
